<?xml version="1.0" standalone="no"?>
<!DOCTYPE svg PUBLIC "-//W3C//DTD SVG 20010904//EN"
 "http://www.w3.org/TR/2001/REC-SVG-20010904/DTD/svg10.dtd">
<svg version="1.0" xmlns="http://www.w3.org/2000/svg"
 width="300.000000pt" height="300.000000pt" viewBox="0 0 300.000000 300.000000"
 preserveAspectRatio="xMidYMid meet">
<metadata>
Created by potrace 1.10, written by Peter Selinger 2001-2011
</metadata>
<g transform="translate(0.000000,300.000000) scale(0.050000,-0.050000)"
fill="#000000" stroke="none">
<path d="M5638 4812 c-113 -40 -187 -99 -489 -391 -154 -149 -441 -415 -638
-591 -434 -388 -1050 -994 -1503 -1480 -378 -405 -451 -471 -508 -456 -138 36
-107 211 75 426 280 329 349 519 229 639 -171 171 -353 -2 -513 -488 -79 -240
-242 -427 -502 -577 -15 -8 -20 53 -14 202 4 118 -1 318 -11 444 -14 186 -12
241 11 287 279 563 175 1400 -189 1509 -324 97 -411 -85 -227 -473 123 -261
181 -534 181 -852 l0 -203 -168 -209 c-213 -264 -255 -303 -515 -482 -117 -81
-284 -199 -370 -263 -86 -64 -202 -145 -257 -180 -122 -78 -146 -158 -60 -197
66 -31 142 4 464 218 553 366 647 443 821 675 l90 120 -10 -290 c-5 -167 -24
-350 -43 -432 l-34 -141 -198 -179 c-249 -224 -281 -343 -109 -408 117 -45
390 170 509 402 47 89 147 193 340 351 155 127 180 135 180 60 0 -63 51 -128
136 -171 242 -122 411 -45 641 294 217 319 686 838 1102 1220 282 259 853 753
991 856 55 42 159 129 230 194 154 141 337 268 426 298 139 47 192 148 119
232 -48 56 -102 66 -187 36z m-3999 -849 c39 -78 92 -319 73 -338 -13 -12 -12
-14 -92 232 -76 235 -69 277 19 106z"/>
<path d="M4183 2888 c-41 -29 -46 -44 -35 -113 15 -90 -44 -675 -71 -704 -10
-11 -17 13 -17 58 0 316 -240 418 -389 165 -220 -376 -324 -939 -213 -1154
211 -409 561 -282 664 240 33 169 256 312 766 493 168 60 297 124 484 239 78
49 150 88 162 88 79 0 111 155 46 220 -74 74 -139 50 -400 -147 -139 -105
-214 -143 -480 -237 -93 -33 -241 -96 -327 -139 -127 -64 -154 -72 -146 -43
14 45 20 86 85 563 53 387 53 387 13 440 -49 66 -82 73 -142 31z m-323 -953
c-6 -284 -3 -304 43 -354 66 -71 -47 -378 -147 -397 -181 -35 -169 495 18 840
74 137 90 121 86 -89z"/>
<path d="M4789 2691 c-62 -62 -62 -121 0 -162 94 -62 224 67 163 161 -42 63
-100 64 -163 1z"/>
</g>
</svg>
