<?xml version="1.0" standalone="no"?>
<!DOCTYPE svg PUBLIC "-//W3C//DTD SVG 20010904//EN"
 "http://www.w3.org/TR/2001/REC-SVG-20010904/DTD/svg10.dtd">
<svg version="1.0" xmlns="http://www.w3.org/2000/svg"
 width="96.000000pt" height="96.000000pt" viewBox="0 0 96.000000 96.000000"
 preserveAspectRatio="xMidYMid meet">
<metadata>
Created by potrace 1.10, written by Peter Selinger 2001-2011
</metadata>
<g transform="translate(0.000000,96.000000) scale(0.100000,-0.100000)"
fill="#000000" stroke="none">
<path d="M882 771 c-49 -31 -338 -311 -421 -408 -53 -62 -81 -78 -81 -47 0 8
16 36 35 61 50 65 46 113 -8 99 -15 -3 -28 -21 -40 -53 -30 -78 -44 -98 -68
-98 -20 0 -24 6 -26 40 -2 22 4 64 13 93 22 70 16 182 -10 211 -22 24 -68 28
-85 7 -11 -14 -2 -52 26 -106 18 -35 16 -116 -3 -149 -9 -15 -61 -60 -115
-101 -55 -40 -98 -78 -96 -84 6 -19 52 -18 74 1 12 10 37 29 55 43 18 14 43
35 56 48 33 32 42 28 42 -20 0 -35 -6 -46 -40 -78 -43 -39 -49 -60 -25 -80 20
-17 57 7 89 58 31 49 62 76 78 68 7 -4 24 -13 36 -20 36 -21 57 -9 103 53 47
62 131 148 229 231 63 53 82 70 145 125 17 14 42 33 58 41 30 16 37 58 11 68
-19 7 -16 7 -32 -3z"/>
<path d="M655 448 c-2 -7 -5 -26 -7 -43 -3 -26 -7 -30 -33 -30 -26 0 -33 -7
-57 -55 -46 -95 -30 -190 32 -190 30 0 60 34 60 69 0 23 44 61 71 61 10 0 20
4 23 9 3 5 20 12 38 15 46 9 113 58 113 81 0 30 -39 30 -77 2 -49 -37 -128
-71 -139 -60 -5 5 -4 30 3 64 12 56 7 89 -12 89 -6 0 -13 -6 -15 -12z m-43
-240 c-16 -16 -42 -2 -42 22 0 11 8 33 18 47 l17 27 9 -42 c6 -29 6 -46 -2
-54z"/>
<path d="M747 433 c-4 -3 -7 -15 -7 -25 0 -12 7 -18 24 -18 24 0 41 23 30 41
-6 10 -38 12 -47 2z"/>
</g>
</svg>
