<?xml version="1.0" standalone="no"?>
<!DOCTYPE svg PUBLIC "-//W3C//DTD SVG 20010904//EN"
 "http://www.w3.org/TR/2001/REC-SVG-20010904/DTD/svg10.dtd">
<svg version="1.0" xmlns="http://www.w3.org/2000/svg"
 width="300.000000pt" height="300.000000pt" viewBox="0 0 300.000000 300.000000"
 preserveAspectRatio="xMidYMid meet">
<metadata>
Created by potrace 1.10, written by Peter Selinger 2001-2011
</metadata>
<g transform="translate(0.000000,300.000000) scale(0.100000,-0.100000)"
fill="#000000" stroke="none">
<path d="M2775 2428 c-59 -30 -114 -77 -266 -222 -74 -72 -182 -173 -240 -225
-304 -275 -465 -431 -690 -671 -304 -323 -312 -331 -325 -297 -9 24 16 69 74
136 133 153 170 256 119 332 -48 72 -126 85 -194 33 -49 -37 -82 -93 -127
-215 -21 -57 -43 -117 -48 -132 -10 -26 -113 -127 -129 -127 -13 0 -18 33 -25
186 -6 145 -5 153 19 221 41 113 59 218 61 348 1 100 -3 132 -23 195 -13 41
-29 87 -37 102 -49 95 -199 153 -281 109 -12 -6 -34 -27 -49 -46 -38 -51 -31
-112 28 -237 59 -123 79 -211 84 -369 l4 -126 -32 -44 c-71 -101 -178 -209
-260 -264 -40 -28 -118 -84 -173 -126 -55 -42 -111 -82 -125 -89 -48 -25 -108
-80 -114 -106 -8 -30 11 -65 48 -89 20 -13 32 -14 63 -6 68 19 443 270 535
359 26 25 51 43 55 39 10 -10 -15 -200 -32 -239 -7 -18 -56 -74 -109 -125 -94
-89 -96 -92 -96 -137 0 -64 38 -106 102 -113 44 -5 52 -2 113 42 68 48 132
120 165 186 20 38 120 135 164 158 23 13 27 11 52 -18 32 -38 62 -54 132 -71
103 -24 171 22 310 210 47 63 90 120 96 126 6 7 34 39 61 72 68 83 443 454
530 525 39 31 111 93 160 137 50 44 113 98 142 120 28 21 95 78 150 125 54 47
130 101 168 121 116 60 145 98 125 160 -24 72 -104 95 -185 52z m138 -40 c22
-26 22 -61 -1 -81 -10 -9 -49 -32 -88 -51 -39 -20 -105 -66 -148 -103 -43 -38
-105 -90 -139 -116 -89 -70 -372 -315 -508 -439 -213 -195 -412 -417 -563
-627 -73 -100 -113 -137 -167 -151 -87 -24 -189 26 -209 102 l-11 38 -77 -62
c-94 -77 -147 -135 -192 -211 -35 -60 -131 -147 -184 -166 -34 -13 -70 0 -92
34 -27 41 -9 74 96 170 91 83 96 89 113 153 18 69 37 364 22 350 -5 -4 -36
-43 -70 -85 -64 -80 -109 -115 -368 -288 -170 -114 -208 -132 -242 -117 -43
20 -31 60 28 97 26 17 97 67 157 113 61 45 134 97 163 116 100 64 157 117 247
228 l90 113 0 100 c-1 162 -28 291 -90 424 -65 140 -69 180 -22 222 22 20 43
29 66 29 47 0 116 -26 148 -57 51 -49 98 -198 98 -313 0 -87 -27 -238 -56
-320 -27 -73 -27 -80 -28 -311 l-1 -237 50 36 c108 79 175 145 186 187 23 84
83 232 111 272 52 77 119 94 169 44 22 -22 29 -39 29 -68 -1 -68 -37 -131
-157 -270 -41 -48 -54 -71 -59 -106 -8 -56 7 -87 44 -87 33 0 51 17 247 225
313 334 513 530 805 790 74 66 196 179 270 251 146 141 183 170 239 190 42 15
69 10 94 -18z"/>
<path d="M783 2015 c3 -11 17 -53 31 -93 14 -41 26 -80 26 -87 0 -8 5 -17 11
-20 25 -16 -21 158 -52 195 -18 21 -20 22 -16 5z"/>
<path d="M2066 1465 c-14 -13 -26 -28 -27 -32 0 -4 -2 -50 -4 -101 -2 -52 -6
-96 -8 -99 -3 -2 -27 3 -55 13 -47 17 -50 17 -88 -3 -56 -28 -96 -87 -142
-205 -77 -197 -98 -377 -54 -473 40 -87 124 -155 192 -155 83 0 166 84 199
200 32 113 39 123 102 164 53 33 125 65 351 155 26 11 100 50 165 88 160 93
185 138 119 211 -56 61 -111 48 -241 -54 -54 -42 -121 -76 -235 -118 -52 -19
-109 -40 -127 -47 -18 -7 -35 -10 -39 -7 -6 7 3 87 33 286 17 115 11 147 -35
182 -34 27 -74 25 -106 -5z m97 -36 c18 -25 18 -33 8 -110 -7 -46 -21 -150
-31 -230 -11 -80 -22 -154 -26 -163 -5 -13 16 -6 82 27 49 24 114 52 144 62
108 35 176 68 245 119 95 71 138 96 164 96 29 0 61 -35 61 -67 0 -27 -25 -63
-44 -63 -6 0 -36 -16 -66 -36 -79 -52 -169 -98 -231 -118 -102 -33 -254 -103
-325 -149 -71 -46 -71 -46 -83 -107 -37 -185 -137 -279 -239 -226 -56 29 -108
112 -118 190 -15 106 59 378 135 497 71 113 175 79 191 -63 3 -35 9 -56 12
-48 13 32 38 309 32 347 -5 35 -3 43 17 57 31 21 47 17 72 -15z"/>
<path d="M1877 983 c-53 -116 -70 -185 -65 -264 6 -73 37 -133 66 -127 22 4
54 54 76 120 l19 55 -21 24 c-25 26 -26 35 -22 172 1 56 -2 97 -7 97 -6 0 -26
-35 -46 -77z m13 -148 c0 -8 8 -30 17 -49 14 -31 15 -40 3 -76 -7 -23 -18 -44
-23 -47 -31 -19 -50 98 -26 165 11 31 29 35 29 7z"/>
<path d="M2394 1388 c-51 -39 -68 -79 -48 -119 13 -27 52 -49 85 -49 33 0 89
62 89 99 0 29 -38 81 -60 81 -4 0 -15 2 -22 5 -8 3 -28 -4 -44 -17z m82 -43
c15 -23 15 -27 0 -50 -26 -39 -53 -49 -82 -30 -31 20 -31 49 1 80 31 32 60 32
81 0z"/>
</g>
</svg>
