<?xml version="1.0" standalone="no"?>
<!DOCTYPE svg PUBLIC "-//W3C//DTD SVG 20010904//EN"
 "http://www.w3.org/TR/2001/REC-SVG-20010904/DTD/svg10.dtd">
<svg version="1.0" xmlns="http://www.w3.org/2000/svg"
 width="300.000000pt" height="300.000000pt" viewBox="0 0 300.000000 300.000000"
 preserveAspectRatio="xMidYMid meet">
<metadata>
Created by potrace 1.10, written by Peter Selinger 2001-2011
</metadata>
<g transform="translate(0.000000,300.000000) scale(0.050000,-0.050000)"
fill="#000000" stroke="none">
<path d="M5634 4809 c-115 -42 -181 -94 -474 -378 -149 -143 -397 -373 -550
-511 -524 -469 -956 -889 -1447 -1409 -552 -585 -579 -611 -648 -611 -144 0
-128 203 30 386 319 370 386 546 257 676 -169 169 -352 -8 -512 -493 -79 -240
-242 -427 -500 -574 -53 -30 -21 925 36 1084 257 713 34 1457 -412 1373 -190
-35 -205 -172 -55 -489 123 -261 181 -534 181 -852 l0 -203 -168 -209 c-213
-264 -255 -303 -515 -482 -117 -81 -284 -199 -370 -263 -86 -64 -202 -145
-257 -180 -132 -85 -148 -214 -27 -214 129 0 1024 615 1167 801 44 57 101 128
126 157 l46 52 -8 -280 c-5 -161 -23 -340 -42 -422 l-34 -141 -198 -179 c-249
-224 -281 -343 -109 -408 104 -40 359 143 470 339 81 143 175 245 379 414 154
127 180 136 180 60 0 -137 241 -261 416 -214 116 31 171 83 361 340 428 579
844 1009 1664 1715 181 156 374 317 429 358 55 42 159 129 230 194 154 141
337 268 426 298 139 47 192 148 119 232 -49 56 -102 65 -191 33z m-3996 -845
c61 -121 101 -344 62 -344 -11 0 -20 16 -20 35 0 19 -27 112 -60 205 -78 224
-69 276 18 104z"/>
<path d="M4183 2888 c-41 -29 -46 -44 -35 -113 14 -85 -43 -674 -68 -701 -8
-9 -19 34 -26 96 -59 573 -500 177 -624 -560 -131 -779 539 -1004 691 -232
l25 124 142 92 c147 95 360 194 600 279 168 60 297 124 484 239 78 49 150 88
162 88 79 0 111 155 46 220 -75 75 -134 55 -390 -140 -148 -112 -221 -149
-490 -244 -93 -33 -233 -93 -310 -133 -77 -40 -148 -76 -158 -81 -10 -4 -12
14 -6 40 68 257 136 945 99 995 -49 66 -82 73 -142 31z m-324 -996 c-3 -221
14 -300 68 -336 49 -32 -101 -359 -171 -372 -177 -34 -173 462 7 821 83 167
98 149 96 -113z"/>
<path d="M4789 2691 c-100 -100 -5 -241 106 -158 84 63 97 96 58 155 -43 65
-101 66 -164 3z"/>
</g>
</svg>
