<?xml version="1.0" standalone="no"?>
<!DOCTYPE svg PUBLIC "-//W3C//DTD SVG 20010904//EN"
 "http://www.w3.org/TR/2001/REC-SVG-20010904/DTD/svg10.dtd">
<svg version="1.0" xmlns="http://www.w3.org/2000/svg"
 width="137.000000pt" height="137.000000pt" viewBox="0 0 137.000000 137.000000"
 preserveAspectRatio="xMidYMid meet">
<metadata>
Created by potrace 1.10, written by Peter Selinger 2001-2011
</metadata>
<g transform="translate(0.000000,137.000000) scale(0.050000,-0.050000)"
fill="#000000" stroke="none">
<path d="M2365 2036 c-97 -91 -291 -271 -430 -400 -139 -129 -368 -356 -508
-506 -151 -160 -268 -269 -286 -266 -60 12 -48 108 24 190 152 171 184 293 84
318 -76 19 -141 -54 -193 -217 -42 -129 -108 -210 -226 -279 -36 -22 -22 400
18 544 88 311 -28 627 -208 570 -82 -26 -86 -80 -18 -235 50 -113 66 -181 73
-315 l10 -170 -138 -140 c-75 -77 -203 -185 -283 -240 -257 -176 -251 -171
-216 -206 48 -48 468 224 572 371 l50 71 7 -78 c16 -190 -13 -281 -119 -382
-103 -98 -119 -153 -55 -193 35 -21 217 104 217 150 0 28 201 237 228 237 12
0 31 -20 42 -44 56 -123 202 -93 325 68 278 363 991 1034 1257 1183 100 57
107 120 14 129 -55 6 -85 -15 -241 -160z m-1595 -297 l10 -69 -29 60 c-34 70
-41 128 -11 98 10 -10 24 -50 30 -89z"/>
<path d="M1906 1315 c-8 -14 -16 -52 -17 -85 -4 -212 -11 -271 -29 -260 -11 7
-20 34 -20 60 0 55 -60 96 -111 77 -56 -22 -150 -256 -163 -406 -27 -320 203
-412 300 -119 41 124 86 161 304 247 279 109 420 202 398 259 -20 51 -95 37
-190 -35 -48 -37 -153 -92 -233 -122 -80 -30 -150 -63 -156 -73 -50 -81 -60
-4 -26 205 27 165 30 231 14 250 -27 34 -50 34 -71 2z m-124 -587 c23 -45 -22
-188 -59 -188 -75 0 -82 230 -10 362 l37 68 5 -100 c3 -55 15 -119 27 -142z"/>
<path d="M2180 1230 c-29 -35 -13 -90 27 -90 40 0 80 54 66 90 -15 38 -61 39
-93 0z"/>
</g>
</svg>
